<mxfile host="app.diagrams.net" modified="2024-05-26T18:56:43.199Z" agent="Mozilla/5.0 (Windows NT 10.0; Win64; x64; rv:126.0) Gecko/20100101 Firefox/126.0" etag="N19zvrcmMLGy0EhYJcx8" version="24.4.8" type="github">
  <diagram id="C5RBs43oDa-KdzZeNtuy" name="Page-1">
    <mxGraphModel dx="769" dy="781" grid="1" gridSize="10" guides="1" tooltips="1" connect="1" arrows="1" fold="1" page="1" pageScale="1" pageWidth="827" pageHeight="1169" math="0" shadow="0">
      <root>
        <mxCell id="WIyWlLk6GJQsqaUBKTNV-0" />
        <mxCell id="WIyWlLk6GJQsqaUBKTNV-1" parent="WIyWlLk6GJQsqaUBKTNV-0" />
        <mxCell id="0BM6oI4LS3fLHBydc6Kd-0" value="&#xa;&lt;div style=&quot;color: #d4d4d4;background-color: #1e1e1e;font-family: &#39;Fira Code&#39;, Consolas, &#39;Courier New&#39;, monospace;font-weight: normal;font-size: 13px;line-height: 18px;white-space: pre;&quot;&gt;&lt;div&gt;&lt;span style=&quot;color: #4ec9b0;&quot;&gt;Interpreter&lt;/span&gt;&lt;/div&gt;&lt;/div&gt;&#xa;&#xa;" style="rounded=1;whiteSpace=wrap;html=1;" vertex="1" parent="WIyWlLk6GJQsqaUBKTNV-1">
          <mxGeometry x="339" y="60" width="120" height="60" as="geometry" />
        </mxCell>
        <mxCell id="0BM6oI4LS3fLHBydc6Kd-1" value="&#xa;&lt;div style=&quot;color: #d4d4d4;background-color: #1e1e1e;font-family: &#39;Fira Code&#39;, Consolas, &#39;Courier New&#39;, monospace;font-weight: normal;font-size: 13px;line-height: 18px;white-space: pre;&quot;&gt;&lt;div&gt;&lt;span style=&quot;color: #dcdcaa;&quot;&gt;run&lt;/span&gt;&lt;/div&gt;&lt;/div&gt;&#xa;&#xa;" style="rhombus;whiteSpace=wrap;html=1;" vertex="1" parent="WIyWlLk6GJQsqaUBKTNV-1">
          <mxGeometry x="480" y="160" width="150" height="80" as="geometry" />
        </mxCell>
        <mxCell id="0BM6oI4LS3fLHBydc6Kd-2" value="&#xa;&lt;div style=&quot;color: #d4d4d4;background-color: #1e1e1e;font-family: &#39;Fira Code&#39;, Consolas, &#39;Courier New&#39;, monospace;font-weight: normal;font-size: 13px;line-height: 18px;white-space: pre;&quot;&gt;&lt;div&gt;&lt;span style=&quot;color: #dcdcaa;&quot;&gt;evaluate&lt;/span&gt;&lt;/div&gt;&lt;/div&gt;&#xa;&#xa;" style="rhombus;whiteSpace=wrap;html=1;" vertex="1" parent="WIyWlLk6GJQsqaUBKTNV-1">
          <mxGeometry x="324" y="160" width="150" height="80" as="geometry" />
        </mxCell>
        <mxCell id="0BM6oI4LS3fLHBydc6Kd-3" value="&#xa;&lt;div style=&quot;color: #d4d4d4;background-color: #1e1e1e;font-family: &#39;Fira Code&#39;, Consolas, &#39;Courier New&#39;, monospace;font-weight: normal;font-size: 13px;line-height: 18px;white-space: pre;&quot;&gt;&lt;div&gt;&lt;span style=&quot;color: #dcdcaa;&quot;&gt;calculate&lt;/span&gt;&lt;/div&gt;&lt;/div&gt;&#xa;&#xa;" style="rhombus;whiteSpace=wrap;html=1;" vertex="1" parent="WIyWlLk6GJQsqaUBKTNV-1">
          <mxGeometry x="170" y="160" width="150" height="80" as="geometry" />
        </mxCell>
        <mxCell id="0BM6oI4LS3fLHBydc6Kd-5" value="" style="endArrow=none;html=1;rounded=0;entryX=0.5;entryY=1;entryDx=0;entryDy=0;exitX=0.5;exitY=0;exitDx=0;exitDy=0;" edge="1" parent="WIyWlLk6GJQsqaUBKTNV-1" source="0BM6oI4LS3fLHBydc6Kd-2" target="0BM6oI4LS3fLHBydc6Kd-0">
          <mxGeometry width="50" height="50" relative="1" as="geometry">
            <mxPoint x="390" y="400" as="sourcePoint" />
            <mxPoint x="440" y="350" as="targetPoint" />
          </mxGeometry>
        </mxCell>
        <mxCell id="0BM6oI4LS3fLHBydc6Kd-6" value="" style="endArrow=none;html=1;rounded=0;entryX=0.5;entryY=0;entryDx=0;entryDy=0;exitX=0.5;exitY=1;exitDx=0;exitDy=0;" edge="1" parent="WIyWlLk6GJQsqaUBKTNV-1" source="0BM6oI4LS3fLHBydc6Kd-0" target="0BM6oI4LS3fLHBydc6Kd-1">
          <mxGeometry width="50" height="50" relative="1" as="geometry">
            <mxPoint x="390" y="400" as="sourcePoint" />
            <mxPoint x="440" y="350" as="targetPoint" />
          </mxGeometry>
        </mxCell>
        <mxCell id="0BM6oI4LS3fLHBydc6Kd-7" value="" style="endArrow=none;html=1;rounded=0;exitX=0.5;exitY=0;exitDx=0;exitDy=0;" edge="1" parent="WIyWlLk6GJQsqaUBKTNV-1" source="0BM6oI4LS3fLHBydc6Kd-3">
          <mxGeometry width="50" height="50" relative="1" as="geometry">
            <mxPoint x="390" y="400" as="sourcePoint" />
            <mxPoint x="400" y="120" as="targetPoint" />
          </mxGeometry>
        </mxCell>
        <mxCell id="0BM6oI4LS3fLHBydc6Kd-20" value="&#xa;&lt;div style=&quot;color: #d4d4d4;background-color: #1e1e1e;font-family: &#39;Fira Code&#39;, Consolas, &#39;Courier New&#39;, monospace;font-weight: normal;font-size: 13px;line-height: 18px;white-space: pre;&quot;&gt;&lt;div&gt;&lt;span style=&quot;color: #dcdcaa;&quot;&gt;error&lt;/span&gt;&lt;/div&gt;&lt;/div&gt;&#xa;&#xa;" style="rounded=0;whiteSpace=wrap;html=1;" vertex="1" parent="WIyWlLk6GJQsqaUBKTNV-1">
          <mxGeometry x="170" y="320" width="120" height="40" as="geometry" />
        </mxCell>
        <mxCell id="0BM6oI4LS3fLHBydc6Kd-30" value="" style="rounded=0;whiteSpace=wrap;html=1;" vertex="1" parent="WIyWlLk6GJQsqaUBKTNV-1">
          <mxGeometry x="280" y="440" width="120" height="40" as="geometry" />
        </mxCell>
        <mxCell id="0BM6oI4LS3fLHBydc6Kd-32" value="&#xa;&lt;div style=&quot;color: #d4d4d4;background-color: #1e1e1e;font-family: &#39;Fira Code&#39;, Consolas, &#39;Courier New&#39;, monospace;font-weight: normal;font-size: 13px;line-height: 18px;white-space: pre;&quot;&gt;&lt;div&gt;&lt;span style=&quot;color: #dcdcaa;&quot;&gt;warn&lt;/span&gt;&lt;/div&gt;&lt;/div&gt;&#xa;&#xa;" style="rounded=0;whiteSpace=wrap;html=1;fontStyle=0" vertex="1" parent="WIyWlLk6GJQsqaUBKTNV-1">
          <mxGeometry x="170" y="270" width="120" height="40" as="geometry" />
        </mxCell>
        <mxCell id="0BM6oI4LS3fLHBydc6Kd-33" value="" style="rounded=0;whiteSpace=wrap;html=1;" vertex="1" parent="WIyWlLk6GJQsqaUBKTNV-1">
          <mxGeometry x="290" y="450" width="120" height="40" as="geometry" />
        </mxCell>
        <mxCell id="0BM6oI4LS3fLHBydc6Kd-34" value="" style="rounded=0;whiteSpace=wrap;html=1;" vertex="1" parent="WIyWlLk6GJQsqaUBKTNV-1">
          <mxGeometry x="300" y="460" width="120" height="40" as="geometry" />
        </mxCell>
        <mxCell id="0BM6oI4LS3fLHBydc6Kd-35" value="&#xa;&lt;div style=&quot;color: #d4d4d4;background-color: #1e1e1e;font-family: &#39;Fira Code&#39;, Consolas, &#39;Courier New&#39;, monospace;font-weight: normal;font-size: 13px;line-height: 18px;white-space: pre;&quot;&gt;&lt;div&gt;&lt;span style=&quot;color: #dcdcaa;&quot;&gt;typeCast&lt;/span&gt;&lt;/div&gt;&lt;/div&gt;&#xa;&#xa;" style="rounded=0;whiteSpace=wrap;html=1;" vertex="1" parent="WIyWlLk6GJQsqaUBKTNV-1">
          <mxGeometry x="170" y="820" width="120" height="40" as="geometry" />
        </mxCell>
        <mxCell id="0BM6oI4LS3fLHBydc6Kd-36" value="&#xa;&lt;div style=&quot;color: #d4d4d4;background-color: #1e1e1e;font-family: &#39;Fira Code&#39;, Consolas, &#39;Courier New&#39;, monospace;font-weight: normal;font-size: 13px;line-height: 18px;white-space: pre;&quot;&gt;&lt;div&gt;&lt;span style=&quot;color: #dcdcaa;&quot;&gt;read&lt;/span&gt;&lt;/div&gt;&lt;/div&gt;&#xa;&#xa;" style="rounded=0;whiteSpace=wrap;html=1;" vertex="1" parent="WIyWlLk6GJQsqaUBKTNV-1">
          <mxGeometry x="170" y="770" width="120" height="40" as="geometry" />
        </mxCell>
        <mxCell id="0BM6oI4LS3fLHBydc6Kd-37" value="&#xa;&lt;div style=&quot;color: #d4d4d4;background-color: #1e1e1e;font-family: &#39;Fira Code&#39;, Consolas, &#39;Courier New&#39;, monospace;font-weight: normal;font-size: 13px;line-height: 18px;white-space: pre;&quot;&gt;&lt;div&gt;&lt;span style=&quot;color: #dcdcaa;&quot;&gt;call&lt;/span&gt;&lt;/div&gt;&lt;/div&gt;&#xa;&#xa;" style="rounded=0;whiteSpace=wrap;html=1;" vertex="1" parent="WIyWlLk6GJQsqaUBKTNV-1">
          <mxGeometry x="170" y="720" width="120" height="40" as="geometry" />
        </mxCell>
        <mxCell id="0BM6oI4LS3fLHBydc6Kd-38" value="&#xa;&lt;div style=&quot;color: #d4d4d4;background-color: #1e1e1e;font-family: &#39;Fira Code&#39;, Consolas, &#39;Courier New&#39;, monospace;font-weight: normal;font-size: 13px;line-height: 18px;white-space: pre;&quot;&gt;&lt;div&gt;&lt;span style=&quot;color: #dcdcaa;&quot;&gt;write&lt;/span&gt;&lt;/div&gt;&lt;/div&gt;&#xa;&#xa;" style="rounded=0;whiteSpace=wrap;html=1;" vertex="1" parent="WIyWlLk6GJQsqaUBKTNV-1">
          <mxGeometry x="170" y="670" width="120" height="40" as="geometry" />
        </mxCell>
        <mxCell id="0BM6oI4LS3fLHBydc6Kd-39" value="&#xa;&lt;div style=&quot;color: #d4d4d4;background-color: #1e1e1e;font-family: &#39;Fira Code&#39;, Consolas, &#39;Courier New&#39;, monospace;font-weight: normal;font-size: 13px;line-height: 18px;white-space: pre;&quot;&gt;&lt;div&gt;&lt;span style=&quot;color: #dcdcaa;&quot;&gt;condition&lt;/span&gt;&lt;/div&gt;&lt;/div&gt;&#xa;&#xa;" style="rounded=0;whiteSpace=wrap;html=1;" vertex="1" parent="WIyWlLk6GJQsqaUBKTNV-1">
          <mxGeometry x="170" y="620" width="120" height="40" as="geometry" />
        </mxCell>
        <mxCell id="0BM6oI4LS3fLHBydc6Kd-40" value="&#xa;&lt;div style=&quot;color: #d4d4d4;background-color: #1e1e1e;font-family: &#39;Fira Code&#39;, Consolas, &#39;Courier New&#39;, monospace;font-weight: normal;font-size: 13px;line-height: 18px;white-space: pre;&quot;&gt;&lt;div&gt;&lt;span style=&quot;color: #dcdcaa;&quot;&gt;declareFunction&lt;/span&gt;&lt;/div&gt;&lt;/div&gt;&#xa;&#xa;" style="rounded=0;whiteSpace=wrap;html=1;" vertex="1" parent="WIyWlLk6GJQsqaUBKTNV-1">
          <mxGeometry x="170" y="570" width="120" height="40" as="geometry" />
        </mxCell>
        <mxCell id="0BM6oI4LS3fLHBydc6Kd-41" value="&#xa;&lt;div style=&quot;color: #d4d4d4;background-color: #1e1e1e;font-family: &#39;Fira Code&#39;, Consolas, &#39;Courier New&#39;, monospace;font-weight: normal;font-size: 13px;line-height: 18px;white-space: pre;&quot;&gt;&lt;div&gt;&lt;span style=&quot;color: #dcdcaa;&quot;&gt;declareVariable&lt;/span&gt;&lt;/div&gt;&lt;/div&gt;&#xa;&#xa;" style="rounded=0;whiteSpace=wrap;html=1;" vertex="1" parent="WIyWlLk6GJQsqaUBKTNV-1">
          <mxGeometry x="170" y="520" width="120" height="40" as="geometry" />
        </mxCell>
        <mxCell id="0BM6oI4LS3fLHBydc6Kd-42" value="&#xa;&lt;div style=&quot;color: #d4d4d4;background-color: #1e1e1e;font-family: &#39;Fira Code&#39;, Consolas, &#39;Courier New&#39;, monospace;font-weight: normal;font-size: 13px;line-height: 18px;white-space: pre;&quot;&gt;&lt;div&gt;&lt;span style=&quot;color: #dcdcaa;&quot;&gt;splitLine&lt;/span&gt;&lt;/div&gt;&lt;/div&gt;&#xa;&#xa;" style="rounded=0;whiteSpace=wrap;html=1;" vertex="1" parent="WIyWlLk6GJQsqaUBKTNV-1">
          <mxGeometry x="170" y="470" width="120" height="40" as="geometry" />
        </mxCell>
        <mxCell id="0BM6oI4LS3fLHBydc6Kd-43" value="&lt;div style=&quot;color: #d4d4d4;background-color: #1e1e1e;font-family: &#39;Fira Code&#39;, Consolas, &#39;Courier New&#39;, monospace;font-weight: normal;font-size: 13px;line-height: 18px;white-space: pre;&quot;&gt;&lt;div&gt;&lt;span style=&quot;color: #dcdcaa;&quot;&gt;setModule&lt;/span&gt;&lt;/div&gt;&lt;/div&gt;" style="rounded=0;whiteSpace=wrap;html=1;" vertex="1" parent="WIyWlLk6GJQsqaUBKTNV-1">
          <mxGeometry x="170" y="420" width="120" height="40" as="geometry" />
        </mxCell>
        <mxCell id="0BM6oI4LS3fLHBydc6Kd-44" value="&#xa;&lt;div style=&quot;color: #d4d4d4;background-color: #1e1e1e;font-family: &#39;Fira Code&#39;, Consolas, &#39;Courier New&#39;, monospace;font-weight: normal;font-size: 13px;line-height: 18px;white-space: pre;&quot;&gt;&lt;div&gt;&lt;span style=&quot;color: #dcdcaa;&quot;&gt;setLine&lt;/span&gt;&lt;/div&gt;&lt;/div&gt;&#xa;&#xa;" style="rounded=0;whiteSpace=wrap;html=1;" vertex="1" parent="WIyWlLk6GJQsqaUBKTNV-1">
          <mxGeometry x="170" y="370" width="120" height="40" as="geometry" />
        </mxCell>
      </root>
    </mxGraphModel>
  </diagram>
</mxfile>
